<svg width="1280" height="720" xmlns="http://www.w3.org/2000/svg" xmlns:xlink="http://www.w3.org/1999/xlink" overflow="hidden"><defs><clipPath id="clip0"><rect x="0" y="0" width="1280" height="720"/></clipPath></defs><g clip-path="url(#clip0)"><rect x="0" y="0" width="1280" height="720" fill="#FFFFFF"/><rect x="210.5" y="186.5" width="144" height="469" stroke="#41719C" stroke-width="1.33333" stroke-miterlimit="8" fill="#5B9BD5"/><rect x="632.5" y="185.5" width="144" height="469" stroke="#BC8C00" stroke-width="1.33333" stroke-miterlimit="8" fill="#FFC000"/><rect x="1051.5" y="20.5001" width="143" height="634" stroke="#AE5A21" stroke-width="1.33333" stroke-miterlimit="8" fill="#ED7D31"/><text font-family="Calibri,Calibri_MSFontService,sans-serif" font-weight="700" font-size="24" transform="translate(565.599 689)">CPU <tspan font-size="24" x="46.6667" y="0">Physical Address</tspan><tspan font-size="24" x="216.34" y="0">Space</tspan></text><path d="M612.599 692.162 667.266 692.162 721.932 692.162 776.599 692.162 776.599 694.162 721.932 694.162 667.266 694.162 612.599 694.162Z" fill-rule="evenodd"/><text font-family="Calibri,Calibri_MSFontService,sans-serif" font-weight="700" font-size="24" transform="translate(135.584 689)">VideoCore <tspan font-size="24" x="108.9" y="0">Bus Address</tspan><tspan font-size="24" x="235.133" y="0">Space</tspan></text><path d="M244.584 692.162 305.084 692.162 365.584 692.162 365.584 694.162 305.084 694.162 244.584 694.162Z" fill-rule="evenodd"/><text font-family="Calibri,Calibri_MSFontService,sans-serif" font-weight="700" font-size="24" transform="translate(997.981 689)">CPU <tspan font-size="24" x="46.6667" y="0">Virtual Address</tspan><tspan font-size="24" x="204.4" y="0">Space</tspan></text><path d="M1044.98 692.162 1095.65 692.162 1146.31 692.162 1196.98 692.162 1196.98 694.162 1146.31 694.162 1095.65 694.162 1044.98 694.162Z" fill-rule="evenodd"/><rect x="632.5" y="241.5" width="144" height="59" stroke="#BC8C00" stroke-width="1.33333" stroke-miterlimit="8" fill="#FFFFFF" fill-opacity="0.501961"/><text font-family="Calibri,Calibri_MSFontService,sans-serif" font-weight="700" font-size="19" transform="translate(674.803 265)">SDRAM<tspan font-size="19" x="0.126648" y="23">(for VC)</tspan></text><rect x="631.5" y="300.5" width="144" height="355" stroke="#BC8C00" stroke-width="1.33333" stroke-miterlimit="8" fill="#FFFFFF" fill-opacity="0.501961"/><text font-family="Calibri,Calibri_MSFontService,sans-serif" font-weight="700" font-size="19" transform="translate(673.534 472)">SDRAM<tspan font-size="19" x="-5.60669" y="23">(for CPU)</tspan></text><rect x="632.5" y="185.5" width="144" height="56" stroke="#BC8C00" stroke-width="1.33333" stroke-miterlimit="8" fill="#FFFFFF" fill-opacity="0.501961"/><text font-family="Calibri,Calibri_MSFontService,sans-serif" font-weight="700" font-size="19" transform="translate(645.659 219)">I/O Peripherals</text><rect x="210.5" y="580.5" width="144" height="75" stroke="#0070C0" stroke-width="1.33333" stroke-miterlimit="8" fill="#FFFFFF" fill-opacity="0.501961"/><text fill="#7F7F7F" font-family="Calibri,Calibri_MSFontService,sans-serif" font-weight="700" font-size="19" transform="translate(252.657 623)">SDRAM<tspan fill="#000000" font-family="Consolas,Consolas_MSFontService,sans-serif" font-weight="400" font-size="15" x="704.346" y="-595">0xFFFF_FFFF</tspan><tspan fill="#000000" font-family="Consolas,Consolas_MSFontService,sans-serif" font-weight="400" font-size="15" x="270.838" y="-385">PHYS_REG_BASE</tspan></text><rect x="1051.5" y="47.5001" width="143" height="45" stroke="#ED7D31" stroke-width="1.33333" stroke-miterlimit="8" fill="#FFFFFF" fill-opacity="0.501961"/><text font-family="Calibri,Calibri_MSFontService,sans-serif" font-weight="700" font-size="19" transform="translate(1109.78 67)">I/O<tspan font-size="19" x="-30.8134" y="20">Peripherals</tspan></text><rect x="1051.5" y="143.5" width="143" height="47" stroke="#ED7D31" stroke-width="1.33333" stroke-miterlimit="8" fill="#FFFFFF" fill-opacity="0.501961"/><text font-family="Calibri,Calibri_MSFontService,sans-serif" font-weight="700" font-size="19" transform="translate(1093.14 161)">SDRAM<tspan font-size="19" x="0.126709" y="23">(for VC)</tspan></text><rect x="1050.5" y="190.5" width="144" height="95" stroke="#ED7D31" stroke-width="1.33333" stroke-miterlimit="8" fill="#FFFFFF" fill-opacity="0.501961"/><text font-family="Calibri,Calibri_MSFontService,sans-serif" font-weight="700" font-size="19" transform="translate(1092.44 232)">SDRAM<tspan font-size="19" x="-5.60669" y="23">(for CPU)</tspan><tspan font-family="Consolas,Consolas_MSFontService,sans-serif" font-weight="400" font-size="15" x="-135.81" y="53">0XC000_0000</tspan></text><rect x="867.5" y="567.5" width="101" height="65" stroke="#BC8C00" stroke-width="1.33333" stroke-miterlimit="8" fill="#FFC000"/><text fill="#FFFFFF" font-family="Calibri,Calibri_MSFontService,sans-serif" font-weight="700" font-size="21" transform="translate(895.558 594)">ARM <tspan font-size="21" x="-3.83331" y="26">MMU</tspan></text><rect x="445.5" y="568.5" width="100" height="64" stroke="#BC8C00" stroke-width="1.33333" stroke-miterlimit="8" fill="#FFC000"/><text fill="#FFFFFF" font-family="Calibri,Calibri_MSFontService,sans-serif" font-weight="700" font-size="21" transform="translate(457.133 594)">VC/ARM <tspan font-size="21" x="12.1067" y="26">MMU</tspan></text><path d="M1194.5 20.5001C1203.89 20.5001 1211.5 24.1521 1211.5 28.6572L1211.5 145.843C1211.5 150.348 1219.11 154 1228.5 154 1219.11 154 1211.5 157.652 1211.5 162.157L1211.5 279.343C1211.5 283.848 1203.89 287.5 1194.5 287.5" stroke="#000000" stroke-width="1.33333" stroke-miterlimit="8" fill="none" fill-rule="evenodd"/><path d="M1195.5 286.5C1204.61 286.5 1212 290.045 1212 294.417L1212 462.083C1212 466.455 1219.39 470 1228.5 470 1219.39 470 1212 473.545 1212 477.917L1212 645.583C1212 649.955 1204.61 653.5 1195.5 653.5" stroke="#000000" stroke-width="1.33333" stroke-miterlimit="8" fill="none" fill-rule="evenodd"/><text font-family="Calibri,Calibri_MSFontService,sans-serif" font-weight="700" font-size="21" transform="matrix(-1.83697e-16 -1 1 -1.83697e-16 1244.53 519)">User Mode <tspan font-size="21" x="-13" y="26">Address Space</tspan><tspan font-size="21" x="308" y="1.39368">Kernel Mode </tspan><tspan font-size="21" x="304" y="27.3937">Address Space</tspan></text><path d="M976.5 600 990 586.5 990 593.25 1028 593.25 1028 586.5 1041.5 600 1028 613.5 1028 606.75 990 606.75 990 613.5Z" stroke="#000000" stroke-width="1.33333" stroke-miterlimit="8" fill="none" fill-rule="evenodd"/><path d="M370.5 600 384 586.5 384 593.25 422 593.25 422 586.5 435.5 600 422 613.5 422 606.75 384 606.75 384 613.5Z" stroke="#000000" stroke-width="1.33333" stroke-miterlimit="8" fill="none" fill-rule="evenodd"/><path d="M559.5 600.5 573.5 586.5 573.5 593.5 610.5 593.5 610.5 586.5 624.5 600.5 610.5 614.5 610.5 607.5 573.5 607.5 573.5 614.5Z" stroke="#000000" stroke-width="1.33333" stroke-miterlimit="8" fill="none" fill-rule="evenodd"/><path d="M791.5 600.5 805.5 586.5 805.5 593.5 842.5 593.5 842.5 586.5 856.5 600.5 842.5 614.5 842.5 607.5 805.5 607.5 805.5 614.5Z" stroke="#000000" stroke-width="1.33333" stroke-miterlimit="8" fill="none" fill-rule="evenodd"/><text font-family="Consolas,Consolas_MSFontService,sans-serif" font-weight="400" font-size="15" transform="translate(92.6068 540)">0x4000_0000<tspan font-size="15" x="0.117897" y="-116">0x8000_0000</tspan><tspan font-size="15" x="0.798843" y="-239">0xC000_0000</tspan><tspan font-family="Calibri,Calibri_MSFontService,sans-serif" font-weight="700" font-size="24" x="46.4704" y="-482">ARM / VideoCore Address Mapping  (32</tspan><tspan font-family="Calibri,Calibri_MSFontService,sans-serif" font-weight="700" font-size="24" x="441.937" y="-482">-</tspan><tspan font-family="Calibri,Calibri_MSFontService,sans-serif" font-weight="700" font-size="24" x="449.27" y="-482">bit, 1 GB RAM)</tspan></text><path d="M598 303 623.648 303 623.648 305 598 305ZM622.315 300 630.315 304 622.315 308Z"/><text font-family="Calibri,Calibri_MSFontService,sans-serif" font-weight="400" font-size="16" transform="translate(434.568 300)">VPU/CPU RAM split set <tspan font-size="16" x="-10.9933" y="19">by platform configuration</tspan></text><path d="M1019.63 253.219 1035.49 265.92 1034.24 267.482 1018.37 254.781ZM1036.32 262.745 1040.06 270.868 1031.32 268.99Z"/><text font-family="Calibri,Calibri_MSFontService,sans-serif" font-weight="400" font-size="16" transform="translate(866.945 237)">User/Kernel split set by <tspan font-size="16" x="0" y="19">kernel configuration</tspan><tspan font-family="Consolas,Consolas_MSFontService,sans-serif" font-size="15" x="-776.715" y="413">0x0000_0000</tspan><tspan font-family="Consolas,Consolas_MSFontService,sans-serif" font-size="15" x="-471.709" y="224">BUS_REG_</tspan><tspan font-family="Consolas,Consolas_MSFontService,sans-serif" font-size="15" x="-407.709" y="224">BASE</tspan><tspan font-family="Consolas,Consolas_MSFontService,sans-serif" font-size="15" x="-471.709" y="241">=</tspan><tspan font-family="Consolas,Consolas_MSFontService,sans-serif" font-size="15" x="-463.709" y="241">0x7E00_0000</tspan></text><path d="M1026.5 327.375C1056.39 311.125 1086.28 343.625 1116.17 327.375 1146.06 311.125 1175.95 343.625 1205.84 327.375L1206.5 356.625C1176.61 372.875 1146.72 340.375 1116.83 356.625 1086.94 372.875 1057.05 340.375 1027.16 356.625Z" stroke="#FFFFFF" stroke-width="1.33333" stroke-miterlimit="8" fill="#FFFFFF" fill-rule="evenodd"/><rect x="210.5" y="559.5" width="144" height="21" stroke="#0070C0" stroke-width="1.33333" stroke-miterlimit="8" fill="#FFFFFF" fill-opacity="0.501961"/><text fill="#7F7F7F" font-family="Calibri,Calibri_MSFontService,sans-serif" font-weight="700" font-size="19" transform="translate(223.466 575)">I/O Peripherals</text><rect x="210.5" y="467.5" width="144" height="74" stroke="#0070C0" stroke-width="1.33333" stroke-miterlimit="8" fill="#FFFFFF" fill-opacity="0.501961"/><text fill="#7F7F7F" font-family="Calibri,Calibri_MSFontService,sans-serif" font-weight="700" font-size="19" transform="translate(252.657 510)">SDRAM</text><rect x="210.5" y="446.5" width="144" height="21" stroke="#0070C0" stroke-width="1.33333" stroke-miterlimit="8" fill="#FFFFFF" fill-opacity="0.501961"/><text font-family="Calibri,Calibri_MSFontService,sans-serif" font-weight="700" font-size="19" transform="translate(223.466 462)">I/O Peripherals</text><rect x="210.5" y="351.5" width="144" height="74" stroke="#0070C0" stroke-width="1.33333" stroke-miterlimit="8" fill="#FFFFFF" fill-opacity="0.501961"/><text fill="#7F7F7F" font-family="Calibri,Calibri_MSFontService,sans-serif" font-weight="700" font-size="19" transform="translate(252.657 394)">SDRAM</text><rect x="210.5" y="330.5" width="144" height="21" stroke="#0070C0" stroke-width="1.33333" stroke-miterlimit="8" fill="#FFFFFF" fill-opacity="0.501961"/><text fill="#7F7F7F" font-family="Calibri,Calibri_MSFontService,sans-serif" font-weight="700" font-size="19" transform="translate(223.466 346)">I/O Peripherals</text><rect x="210.5" y="230.5" width="144" height="74" stroke="#0070C0" stroke-width="1.33333" stroke-miterlimit="8" fill="#FFFFFF" fill-opacity="0.501961"/><text font-family="Calibri,Calibri_MSFontService,sans-serif" font-weight="700" font-size="19" transform="translate(252.657 273)">SDRAM</text><rect x="210.5" y="209.5" width="144" height="21" stroke="#0070C0" stroke-width="1.33333" stroke-miterlimit="8" fill="#FFFFFF" fill-opacity="0.501961"/><text fill="#7F7F7F" font-family="Calibri,Calibri_MSFontService,sans-serif" font-weight="700" font-size="19" transform="translate(223.466 225)">I/O Peripherals</text><path d="M205.5 306.5C196.387 306.5 189 302.955 189 298.583L189 253.917C189 249.545 181.613 246 172.5 246 181.613 246 189 242.455 189 238.083L189 193.417C189 189.045 196.387 185.5 205.5 185.5" stroke="#000000" stroke-width="1.33333" stroke-miterlimit="8" fill="none" fill-rule="evenodd"/><text font-family="Calibri,Calibri_MSFontService,sans-serif" font-weight="400" font-size="19" transform="matrix(-1.83697e-16 -1 1 -1.83697e-16 163.844 270)">direct</text><path d="M205.5 428.5C196.387 428.5 189 424.955 189 420.583L189 375.417C189 371.045 181.613 367.5 172.5 367.5 181.613 367.5 189 363.955 189 359.583L189 314.417C189 310.045 196.387 306.5 205.5 306.5" stroke="#000000" stroke-width="1.33333" stroke-miterlimit="8" fill="none" fill-rule="evenodd"/><text font-family="Calibri,Calibri_MSFontService,sans-serif" font-weight="400" font-size="19" transform="matrix(-1.83697e-16 -1 1 -1.83697e-16 163.844 399)">L2 cache</text><path d="M205.5 541.5C196.387 541.5 189 537.955 189 533.583L189 492.417C189 488.045 181.613 484.5 172.5 484.5 181.613 484.5 189 480.955 189 476.583L189 435.417C189 431.045 196.387 427.5 205.5 427.5" stroke="#000000" stroke-width="1.33333" stroke-miterlimit="8" fill="none" fill-rule="evenodd"/><text font-family="Calibri,Calibri_MSFontService,sans-serif" font-weight="400" font-size="19" transform="matrix(-1.83697e-16 -1 1 -1.83697e-16 140.225 516)">L2 cache<tspan font-size="19" x="-5" y="23">non</tspan><tspan font-size="19" x="25" y="23">-</tspan><tspan font-size="19" x="31" y="23">alloc</tspan><tspan font-size="19" x="66" y="23">.</tspan></text><path d="M206.5 654.5C197.111 654.5 189.5 650.848 189.5 646.343L189.5 606.157C189.5 601.652 181.889 598 172.5 598 181.889 598 189.5 594.348 189.5 589.843L189.5 549.657C189.5 545.152 197.111 541.5 206.5 541.5" stroke="#000000" stroke-width="1.33333" stroke-miterlimit="8" fill="none" fill-rule="evenodd"/><text font-family="Calibri,Calibri_MSFontService,sans-serif" font-weight="400" font-size="19" transform="matrix(-1.83697e-16 -1 1 -1.83697e-16 140.225 628)">L1 + L2<tspan font-size="19" x="5" y="23">cache</tspan></text><path d="M0.0166313-0.999862 22.5426-0.625173 22.5093 1.37455-0.0166313 0.999862ZM21.2593-3.64693 29.1917 0.485564 21.1263 4.35196Z" transform="matrix(-1 0 0 1 385.192 465)"/></g></svg>