<svg width="960" height="720" xmlns="http://www.w3.org/2000/svg" xmlns:xlink="http://www.w3.org/1999/xlink" overflow="hidden"><defs><clipPath id="clip0"><rect x="0" y="0" width="960" height="720"/></clipPath></defs><g clip-path="url(#clip0)"><rect x="0" y="0" width="960" height="720" fill="#FFFFFF"/><path d="M381 275 381 289.17" stroke="#2F5597" stroke-width="2" stroke-miterlimit="8" fill="none" fill-rule="evenodd"/><path d="M381 231 381 245.17" stroke="#2F5597" stroke-width="2" stroke-miterlimit="8" fill="none" fill-rule="evenodd"/><rect x="26.5001" y="90.5001" width="923" height="448" stroke="#4472C4" stroke-width="3" stroke-miterlimit="8" fill="none"/><text font-family="Calibri,Calibri_MSFontService,sans-serif" font-weight="700" font-size="21" transform="translate(36.0567 115)">Broadcom BCM2711</text><rect x="319.5" y="130.5" width="613" height="214" stroke="#0070C0" stroke-width="3" stroke-miterlimit="8" stroke-dasharray="12 9" fill="none"/><text font-family="Calibri,Calibri_MSFontService,sans-serif" font-weight="700" font-size="19" transform="translate(328.567 151)">VideoCore VI</text><rect x="54.5001" y="130.5" width="234" height="214" stroke="#FFC000" stroke-width="3" stroke-miterlimit="8" stroke-dasharray="12 9" fill="#FFFFFF"/><text font-family="Calibri,Calibri_MSFontService,sans-serif" font-weight="700" font-size="19" transform="translate(63.8543 151)">ARM Cortex A-<tspan font-size="19" x="113.813" y="0">72</tspan></text><rect x="67.5001" y="166.5" width="45" height="39" stroke="#BC8C00" stroke-width="1.33333" stroke-miterlimit="8" fill="#FFC000"/><text fill="#FFFFFF" font-family="Calibri,Calibri_MSFontService,sans-serif" font-weight="700" font-size="19" transform="translate(71.8906 191)">Core</text><rect x="67.5001" y="214.5" width="45" height="22" stroke="#BC8C00" stroke-width="1.33333" stroke-miterlimit="8" fill="#FFC000"/><text fill="#FFFFFF" font-family="Calibri,Calibri_MSFontService,sans-serif" font-weight="700" font-size="19" transform="translate(81.0372 231)">L1</text><rect x="121.5" y="166.5" width="45" height="39" stroke="#BC8C00" stroke-width="1.33333" stroke-miterlimit="8" fill="#FFC000"/><text fill="#FFFFFF" font-family="Calibri,Calibri_MSFontService,sans-serif" font-weight="700" font-size="19" transform="translate(125.402 191)">Core</text><rect x="121.5" y="214.5" width="45" height="22" stroke="#BC8C00" stroke-width="1.33333" stroke-miterlimit="8" fill="#FFC000"/><text fill="#FFFFFF" font-family="Calibri,Calibri_MSFontService,sans-serif" font-weight="700" font-size="19" transform="translate(134.549 231)">L1</text><rect x="174.5" y="166.5" width="45" height="39" stroke="#BC8C00" stroke-width="1.33333" stroke-miterlimit="8" fill="#FFC000"/><text fill="#FFFFFF" font-family="Calibri,Calibri_MSFontService,sans-serif" font-weight="700" font-size="19" transform="translate(178.913 191)">Core</text><rect x="174.5" y="214.5" width="45" height="22" stroke="#BC8C00" stroke-width="1.33333" stroke-miterlimit="8" fill="#FFC000"/><text fill="#FFFFFF" font-family="Calibri,Calibri_MSFontService,sans-serif" font-weight="700" font-size="19" transform="translate(188.06 231)">L1</text><rect x="228.5" y="166.5" width="45" height="39" stroke="#BC8C00" stroke-width="1.33333" stroke-miterlimit="8" fill="#FFC000"/><text fill="#FFFFFF" font-family="Calibri,Calibri_MSFontService,sans-serif" font-weight="700" font-size="19" transform="translate(232.394 191)">Core</text><rect x="228.5" y="214.5" width="45" height="22" stroke="#BC8C00" stroke-width="1.33333" stroke-miterlimit="8" fill="#FFC000"/><text fill="#FFFFFF" font-family="Calibri,Calibri_MSFontService,sans-serif" font-weight="700" font-size="19" transform="translate(241.541 231)">L1</text><rect x="67.5001" y="243.5" width="206" height="37" stroke="#BC8C00" stroke-width="1.33333" stroke-miterlimit="8" fill="#FFC000"/><text fill="#FFFFFF" font-family="Calibri,Calibri_MSFontService,sans-serif" font-weight="700" font-size="19" transform="translate(136.122 268)">L2 Cache</text><rect x="68.5001" y="287.5" width="98" height="48" stroke="#BC8C00" stroke-width="1.33333" stroke-miterlimit="8" fill="#FFC000"/><text fill="#FFFFFF" font-family="Calibri,Calibri_MSFontService,sans-serif" font-weight="700" font-size="19" transform="translate(94.614 317)">MMU</text><rect x="337.5" y="168.5" width="90" height="68" stroke="#41719C" stroke-width="1.33333" stroke-miterlimit="8" fill="#5B9BD5"/><text fill="#FFFFFF" font-family="Calibri,Calibri_MSFontService,sans-serif" font-weight="700" font-size="19" transform="translate(364.617 208)">GPU</text><rect x="337.5" y="243.5" width="90" height="37" stroke="#41719C" stroke-width="1.33333" stroke-miterlimit="8" fill="#5B9BD5"/><text fill="#FFFFFF" font-family="Calibri,Calibri_MSFontService,sans-serif" font-weight="700" font-size="19" transform="translate(347.784 268)">L2 Cache</text><rect x="337.5" y="287.5" width="90" height="37" stroke="#41719C" stroke-width="1.33333" stroke-miterlimit="8" fill="#5B9BD5"/><text fill="#FFFFFF" font-family="Calibri,Calibri_MSFontService,sans-serif" font-weight="700" font-size="19" transform="translate(359.201 312)">MMU</text><path d="M488.418 223.5 816.585 223.5 816.585 249.913 491.274 249.913 491.274 380.087 932.5 380.087 932.5 406.5 54.5001 406.5 54.5001 380.087 461.31 380.087 461.31 223.5 488.418 223.5Z" stroke="#2F528F" stroke-width="1.33333" stroke-miterlimit="8" fill="#4472C4" fill-rule="evenodd"/><text fill="#FFFFFF" font-family="Calibri,Calibri_MSFontService,sans-serif" font-weight="700" font-size="19" transform="translate(413.672 398)">AMBA / AXI-<tspan font-size="19" x="97.9867" y="0">Bus</tspan></text><rect x="466.5" y="166.5" width="79" height="47" stroke="#41719C" stroke-width="1.33333" stroke-miterlimit="8" fill="#5B9BD5"/><text fill="#FFFFFF" font-family="Calibri,Calibri_MSFontService,sans-serif" font-weight="700" font-size="19" transform="translate(476.069 184)">SDRAM <tspan font-size="19" x="-9.54666" y="23">Controller</tspan></text><rect x="554.5" y="166.5" width="79" height="47" stroke="#41719C" stroke-width="1.33333" stroke-miterlimit="8" fill="#5B9BD5"/><text fill="#FFFFFF" font-family="Calibri,Calibri_MSFontService,sans-serif" font-weight="700" font-size="19" transform="translate(570.84 184)">Video <tspan font-size="19" x="-9.5" y="23">Enc/Dec</tspan></text><rect x="642.5" y="166.5" width="79" height="47" stroke="#41719C" stroke-width="1.33333" stroke-miterlimit="8" fill="#5B9BD5"/><text fill="#FFFFFF" font-family="Calibri,Calibri_MSFontService,sans-serif" font-weight="700" font-size="19" transform="translate(651.59 184)">Camera <tspan font-size="19" x="-5.02667" y="23">Interface</tspan></text><rect x="729.5" y="166.5" width="79" height="47" stroke="#41719C" stroke-width="1.33333" stroke-miterlimit="8" fill="#5B9BD5"/><text fill="#FFFFFF" font-family="Calibri,Calibri_MSFontService,sans-serif" font-weight="700" font-size="19" transform="translate(740.59 184)">Display <tspan font-size="19" x="-6.32001" y="23">Interface</tspan></text><rect x="520.5" y="259.5" width="79" height="47" stroke="#41719C" stroke-width="1.33333" stroke-miterlimit="8" fill="#5B9BD5"/><text fill="#FFFFFF" font-family="Calibri,Calibri_MSFontService,sans-serif" font-weight="700" font-size="19" transform="translate(528.456 288)">Mailbox</text><rect x="608.5" y="259.5" width="79" height="47" stroke="#41719C" stroke-width="1.33333" stroke-miterlimit="8" fill="#5B9BD5"/><text fill="#FFFFFF" font-family="Calibri,Calibri_MSFontService,sans-serif" font-weight="700" font-size="19" transform="translate(628.037 288)">DMA</text><rect x="696.5" y="259.5" width="79" height="47" stroke="#41719C" stroke-width="1.33333" stroke-miterlimit="8" fill="#5B9BD5"/><text fill="#FFFFFF" font-family="Calibri,Calibri_MSFontService,sans-serif" font-weight="700" font-size="19" transform="translate(710.493 288)">Debug</text><rect x="57.5001" y="423.5" width="79" height="47" stroke="#AE5A21" stroke-width="1.33333" stroke-miterlimit="8" fill="#ED7D31"/><text fill="#FFFFFF" font-family="Calibri,Calibri_MSFontService,sans-serif" font-weight="700" font-size="19" transform="translate(79.2577 453)">PCIe</text><rect x="145.5" y="423.5" width="79" height="47" stroke="#AE5A21" stroke-width="1.33333" stroke-miterlimit="8" fill="#ED7D31"/><text fill="#FFFFFF" font-family="Calibri,Calibri_MSFontService,sans-serif" font-weight="700" font-size="19" transform="translate(152.726 441)">Ethernet <tspan font-size="19" x="12.8267" y="23">MAC</tspan></text><rect x="232.5" y="423.5" width="79" height="47" stroke="#AE5A21" stroke-width="1.33333" stroke-miterlimit="8" fill="#ED7D31"/><text fill="#FFFFFF" font-family="Calibri,Calibri_MSFontService,sans-serif" font-weight="700" font-size="19" transform="translate(242.065 453)">USB 2.0</text><rect x="320.5" y="423.5" width="79" height="47" stroke="#AE5A21" stroke-width="1.33333" stroke-miterlimit="8" fill="#ED7D31"/><text fill="#FFFFFF" font-family="Calibri,Calibri_MSFontService,sans-serif" font-weight="700" font-size="19" transform="translate(337.475 453)">Timer</text><rect x="409.5" y="423.5" width="79" height="47" stroke="#AE5A21" stroke-width="1.33333" stroke-miterlimit="8" fill="#ED7D31"/><text fill="#FFFFFF" font-family="Calibri,Calibri_MSFontService,sans-serif" font-weight="700" font-size="19" transform="translate(428.885 453)">SDIO</text><rect x="497.5" y="423.5" width="79" height="47" stroke="#AE5A21" stroke-width="1.33333" stroke-miterlimit="8" fill="#ED7D31"/><text fill="#FFFFFF" font-family="Calibri,Calibri_MSFontService,sans-serif" font-weight="700" font-size="19" transform="translate(514.885 453)">UART</text><rect x="585.5" y="423.5" width="79" height="47" stroke="#AE5A21" stroke-width="1.33333" stroke-miterlimit="8" fill="#ED7D31"/><text fill="#FFFFFF" font-family="Calibri,Calibri_MSFontService,sans-serif" font-weight="700" font-size="19" transform="translate(612.288 453)">SPI</text><rect x="673.5" y="423.5" width="79" height="47" stroke="#AE5A21" stroke-width="1.33333" stroke-miterlimit="8" fill="#ED7D31"/><text fill="#FFFFFF" font-family="Calibri,Calibri_MSFontService,sans-serif" font-weight="700" font-size="19" transform="translate(700.114 453)">I2C</text><rect x="761.5" y="423.5" width="79" height="47" stroke="#AE5A21" stroke-width="1.33333" stroke-miterlimit="8" fill="#ED7D31"/><text fill="#FFFFFF" font-family="Calibri,Calibri_MSFontService,sans-serif" font-weight="700" font-size="19" transform="translate(762.441 453)">I2S / PCM</text><rect x="849.5" y="423.5" width="79" height="47" stroke="#AE5A21" stroke-width="1.33333" stroke-miterlimit="8" fill="#ED7D31"/><text fill="#FFFFFF" font-family="Calibri,Calibri_MSFontService,sans-serif" font-weight="700" font-size="19" transform="translate(866.342 453)">PWM</text><path d="M931.5 488.5 905.137 521.5 523.863 521.5 497.5 488.5Z" stroke="#AE5A21" stroke-width="1.33333" stroke-miterlimit="8" fill="#ED7D31" fill-rule="evenodd"/><text fill="#FFFFFF" font-family="Calibri,Calibri_MSFontService,sans-serif" font-weight="700" font-size="19" transform="translate(646.301 510)">GPIO-<tspan font-size="19" x="45.1667" y="0">Multiplexer</tspan></text><rect x="468.5" y="20.5001" width="76" height="60" stroke="#000000" stroke-width="1.33333" stroke-miterlimit="8" stroke-dasharray="5.33333 4" fill="#FFFFFF"/><text font-family="Calibri,Calibri_MSFontService,sans-serif" font-weight="700" font-size="19" transform="translate(476.759 56)">SDRAM</text><rect x="731.5" y="20.5001" width="76" height="60" stroke="#000000" stroke-width="1.33333" stroke-miterlimit="8" stroke-dasharray="5.33333 4" fill="#FFFFFF"/><text font-family="Calibri,Calibri_MSFontService,sans-serif" font-weight="700" font-size="19" transform="translate(746.739 45)">HDMI <tspan font-size="19" x="2.31329" y="23">Ports</tspan></text><rect x="669.5" y="557.5" width="91" height="61" stroke="#000000" stroke-width="1.33333" stroke-miterlimit="8" stroke-dasharray="5.33333 4" fill="#FFFFFF"/><text font-family="Calibri,Calibri_MSFontService,sans-serif" font-weight="700" font-size="19" transform="translate(694.848 582)">GPIO <tspan font-size="19" x="-20.2401" y="23">Connector</tspan></text><rect x="410.5" y="557.5" width="76" height="60" stroke="#000000" stroke-width="1.33333" stroke-miterlimit="8" stroke-dasharray="5.33333 4" fill="#FFFFFF"/><text font-family="Calibri,Calibri_MSFontService,sans-serif" font-weight="700" font-size="19" transform="translate(418.099 593)">SD Card</text><rect x="234.5" y="597.5" width="76" height="40" stroke="#000000" stroke-width="1.33333" stroke-miterlimit="8" stroke-dasharray="5.33333 4" fill="#FFFFFF"/><text font-family="Calibri,Calibri_MSFontService,sans-serif" font-weight="700" font-size="19" transform="translate(248.399 612)">USB-<tspan font-size="19" x="37.1667" y="0">C</tspan><tspan font-size="19" x="7.12666" y="23">OTG</tspan></text><rect x="146.5" y="553.5" width="76" height="40" stroke="#000000" stroke-width="1.33333" stroke-miterlimit="8" stroke-dasharray="5.33333 4" fill="#FFFFFF"/><text font-family="Calibri,Calibri_MSFontService,sans-serif" font-weight="700" font-size="19" transform="translate(151.191 579)">ETH PHY</text><rect x="146.5" y="597.5" width="76" height="40" stroke="#000000" stroke-width="1.33333" stroke-miterlimit="8" stroke-dasharray="5.33333 4" fill="#FFFFFF"/><text font-family="Calibri,Calibri_MSFontService,sans-serif" font-weight="700" font-size="19" transform="translate(163.441 623)">RJ<tspan font-size="19" x="16.6667" y="0">-</tspan><tspan font-size="19" x="22.3333" y="0">45</tspan></text><rect x="58.5001" y="553.5" width="77" height="40" stroke="#000000" stroke-width="1.33333" stroke-miterlimit="8" stroke-dasharray="5.33333 4" fill="#FFFFFF"/><text font-family="Calibri,Calibri_MSFontService,sans-serif" font-weight="700" font-size="19" transform="translate(66.4822 567)">USB 3.0 <tspan font-size="19" x="4.93333" y="23">Bridge</tspan></text><path d="M0 0 0.000104987 43.14" stroke="#2F5597" stroke-width="2" stroke-miterlimit="8" fill="none" fill-rule="evenodd" transform="matrix(-1 0 0 1 117 335)"/><path d="M0 0 35.6115 0.000104987" stroke="#2F5597" stroke-width="2" stroke-miterlimit="8" fill="none" fill-rule="evenodd" transform="matrix(-1 0 0 1 462.612 306)"/><path d="M770 213 770 222.277" stroke="#2F5597" stroke-width="2" stroke-miterlimit="8" fill="none" fill-rule="evenodd"/><path d="M0 0 35.6115 0.000104987" stroke="#2F5597" stroke-width="2" stroke-miterlimit="8" fill="none" fill-rule="evenodd" transform="matrix(-1 0 0 1 462.612 229)"/><path d="M681 213 681 222.277" stroke="#2F5597" stroke-width="2" stroke-miterlimit="8" fill="none" fill-rule="evenodd"/><path d="M593 213 593 222.277" stroke="#2F5597" stroke-width="2" stroke-miterlimit="8" fill="none" fill-rule="evenodd"/><path d="M505 213 505 222.277" stroke="#2F5597" stroke-width="2" stroke-miterlimit="8" fill="none" fill-rule="evenodd"/><path d="M736 250 736 259.277" stroke="#2F5597" stroke-width="2" stroke-miterlimit="8" fill="none" fill-rule="evenodd"/><path d="M648 250 648 259.277" stroke="#2F5597" stroke-width="2" stroke-miterlimit="8" fill="none" fill-rule="evenodd"/><path d="M559 250 559 259.277" stroke="#2F5597" stroke-width="2" stroke-miterlimit="8" fill="none" fill-rule="evenodd"/><path d="M888 405 888 423.182" stroke="#2F5597" stroke-width="2" stroke-miterlimit="8" fill="none" fill-rule="evenodd"/><path d="M800 405 800 423.182" stroke="#2F5597" stroke-width="2" stroke-miterlimit="8" fill="none" fill-rule="evenodd"/><path d="M714 405 714 423.182" stroke="#2F5597" stroke-width="2" stroke-miterlimit="8" fill="none" fill-rule="evenodd"/><path d="M627 405 627 423.182" stroke="#2F5597" stroke-width="2" stroke-miterlimit="8" fill="none" fill-rule="evenodd"/><path d="M536 405 536 423.182" stroke="#2F5597" stroke-width="2" stroke-miterlimit="8" fill="none" fill-rule="evenodd"/><path d="M448 405 448 423.182" stroke="#2F5597" stroke-width="2" stroke-miterlimit="8" fill="none" fill-rule="evenodd"/><path d="M361 405 361 423.182" stroke="#2F5597" stroke-width="2" stroke-miterlimit="8" fill="none" fill-rule="evenodd"/><path d="M274 405 274 423.182" stroke="#2F5597" stroke-width="2" stroke-miterlimit="8" fill="none" fill-rule="evenodd"/><path d="M187 405 187 423.182" stroke="#2F5597" stroke-width="2" stroke-miterlimit="8" fill="none" fill-rule="evenodd"/><path d="M0 0 0.0256168 82.2766" stroke="#000000" stroke-width="2" stroke-miterlimit="8" fill="none" fill-rule="evenodd" transform="matrix(-1 0 0 1 96.0256 470)"/><path d="M0 0 0.0256168 82.2766" stroke="#000000" stroke-width="2" stroke-miterlimit="8" fill="none" fill-rule="evenodd" transform="matrix(-1 0 0 1 185.026 470)"/><path d="M272 470 272 597.083" stroke="#000000" stroke-width="2" stroke-miterlimit="8" fill="none" fill-rule="evenodd"/><path d="M448 470 448.184 556.833" stroke="#000000" stroke-width="2" stroke-miterlimit="8" fill="none" fill-rule="evenodd"/><path d="M715 521 715 557.613" stroke="#000000" stroke-width="2" stroke-miterlimit="8" fill="none" fill-rule="evenodd"/><path d="M0 0 0.686719 86.4539" stroke="#000000" stroke-width="2" stroke-miterlimit="8" fill="none" fill-rule="evenodd" transform="matrix(-1 0 0 1 505.687 80)"/><path d="M0 0 0.486089 86.2088" stroke="#000000" stroke-width="2" stroke-miterlimit="8" fill="none" fill-rule="evenodd" transform="matrix(-1 0 0 1 769.486 80)"/><rect x="58.5001" y="598.5" width="77" height="39" stroke="#000000" stroke-width="1.33333" stroke-miterlimit="8" stroke-dasharray="5.33333 4" fill="#FFFFFF"/><text font-family="Calibri,Calibri_MSFontService,sans-serif" font-weight="700" font-size="19" transform="translate(80.5621 612)">USB <tspan font-size="19" x="-12.2467" y="23">3.0/2.0</tspan></text><path d="M184 593 184 597.436" stroke="#000000" stroke-width="2" stroke-miterlimit="8" fill="none" fill-rule="evenodd"/><path d="M96 593 96.0001 597.436" stroke="#000000" stroke-width="2" stroke-miterlimit="8" fill="none" fill-rule="evenodd"/><rect x="498.5" y="557.5" width="76" height="60" stroke="#000000" stroke-width="1.33333" stroke-miterlimit="8" stroke-dasharray="5.33333 4" fill="#FFFFFF"/><text font-family="Calibri,Calibri_MSFontService,sans-serif" font-weight="700" font-size="19" transform="translate(518.711 582)">WiFi<tspan font-size="19" x="3.66669" y="23">BLE</tspan></text><path d="M537 470 537.184 556.833" stroke="#000000" stroke-width="2" stroke-miterlimit="8" fill="none" fill-rule="evenodd"/><path d="M545 470 545 488.182" stroke="#843C0C" stroke-width="2" stroke-miterlimit="8" fill="none" fill-rule="evenodd"/><path d="M626 469 626 487.182" stroke="#843C0C" stroke-width="2" stroke-miterlimit="8" fill="none" fill-rule="evenodd"/><path d="M714 469 714 487.182" stroke="#843C0C" stroke-width="2" stroke-miterlimit="8" fill="none" fill-rule="evenodd"/><path d="M800 471 800 489.182" stroke="#843C0C" stroke-width="2" stroke-miterlimit="8" fill="none" fill-rule="evenodd"/><path d="M888 469 888 487.182" stroke="#843C0C" stroke-width="2" stroke-miterlimit="8" fill="none" fill-rule="evenodd"/><rect x="870.5" y="650.5" width="79" height="25" stroke="#AE5A21" stroke-width="1.33333" stroke-miterlimit="8" fill="#ED7D31"/><text fill="#FFFFFF" font-family="Calibri,Calibri_MSFontService,sans-serif" font-weight="700" font-size="15" transform="translate(874.737 668)">Peripherals</text><rect x="870.5" y="621.5" width="79" height="25" stroke="#2F528F" stroke-width="1.33333" stroke-miterlimit="8" fill="#4472C4"/><text fill="#FFFFFF" font-family="Calibri,Calibri_MSFontService,sans-serif" font-weight="700" font-size="15" transform="translate(874.404 639)">System Bus</text><rect x="870.5" y="592.5" width="79" height="24" stroke="#41719C" stroke-width="1.33333" stroke-miterlimit="8" fill="#5B9BD5"/><text fill="#FFFFFF" font-family="Calibri,Calibri_MSFontService,sans-serif" font-weight="700" font-size="15" transform="translate(879.654 609)">GPU/VPU</text><rect x="870.5" y="562.5" width="79" height="25" stroke="#BC8C00" stroke-width="1.33333" stroke-miterlimit="8" fill="#FFC000"/><text fill="#FFFFFF" font-family="Calibri,Calibri_MSFontService,sans-serif" font-weight="700" font-size="15" transform="translate(896.57 580)">CPU</text><rect x="870.5" y="681.5" width="79" height="34" stroke="#000000" stroke-width="1.33333" stroke-miterlimit="8" stroke-dasharray="5.33333 4" fill="#FFFFFF"/><text font-family="Calibri,Calibri_MSFontService,sans-serif" font-weight="700" font-size="14" transform="translate(885.154 694)">External <tspan font-size="14" x="-12.8334" y="17">Components</tspan></text><rect x="175.5" y="287.5" width="97" height="48" stroke="#BC8C00" stroke-width="1.33333" stroke-miterlimit="8" fill="#FFC000"/><text fill="#FFFFFF" font-family="Calibri,Calibri_MSFontService,sans-serif" font-weight="700" font-size="19" transform="translate(190.516 306)">VC/ARM <tspan font-size="19" x="10.52" y="23">MMU</tspan></text><path d="M220 335 220 377.922" stroke="#2F5597" stroke-width="2" stroke-miterlimit="8" fill="none" fill-rule="evenodd"/></g></svg>