<svg width="960" height="720" xmlns="http://www.w3.org/2000/svg" xmlns:xlink="http://www.w3.org/1999/xlink" overflow="hidden"><defs><clipPath id="clip0"><rect x="0" y="0" width="960" height="720"/></clipPath></defs><g clip-path="url(#clip0)"><rect x="0" y="0" width="960" height="720" fill="#FFFFFF"/><path d="M391.5 342.5 297.5 278 391.5 213.5Z" stroke="#000000" stroke-width="3" stroke-linecap="round" stroke-linejoin="round" stroke-miterlimit="10" fill="none" fill-rule="evenodd"/><path d="M0 94 65 0 130 94Z" stroke="#000000" stroke-width="3" stroke-linecap="round" stroke-linejoin="round" stroke-miterlimit="10" fill="none" fill-rule="evenodd" transform="matrix(-6.12323e-17 -1 -1 6.12323e-17 387.5 602.5)"/><path d="M0 63 51.8653 0 142.135 0 194 63Z" stroke="#000000" stroke-width="3" stroke-linecap="round" stroke-linejoin="round" stroke-miterlimit="10" fill="none" fill-rule="evenodd" transform="matrix(1.83697e-16 1 1 -1.83697e-16 453.5 440.5)"/><path d="M0 63 51.8652 0 143.135 0 195 63Z" stroke="#000000" stroke-width="3" stroke-linecap="round" stroke-linejoin="round" stroke-miterlimit="10" fill="none" fill-rule="evenodd" transform="matrix(1.83697e-16 1 1 -1.83697e-16 453.5 180.5)"/><rect x="0" y="0" width="222" height="65" stroke="#000000" stroke-width="3" stroke-linecap="round" stroke-linejoin="round" stroke-miterlimit="10" fill="none" transform="matrix(-1 0 0 1 494.5 65.5001)"/><text font-family="Calibri,Calibri_MSFontService,sans-serif" font-weight="400" font-size="32" transform="translate(327.081 108)">GPFSELn</text><rect x="0" y="0" width="204" height="65" stroke="#000000" stroke-width="3" stroke-linecap="round" stroke-linejoin="round" stroke-miterlimit="10" fill="none" transform="matrix(-1 0 0 1 786.5 196.5)"/><text font-family="Calibri,Calibri_MSFontService,sans-serif" font-weight="400" font-size="32" transform="translate(604.941 240)">GPSET/CLRn</text><rect x="0" y="0" width="204" height="65" stroke="#000000" stroke-width="3" stroke-linecap="round" stroke-linejoin="round" stroke-miterlimit="10" fill="none" transform="matrix(-1 0 0 1 786.5 456.5)"/><text font-family="Calibri,Calibri_MSFontService,sans-serif" font-weight="400" font-size="32" transform="translate(633.911 499)">GPLEVn</text><path d="M95.5001 407.5 118.252 383.5 152.748 383.5 175.5 407.5 152.748 431.5 118.252 431.5Z" stroke="#000000" stroke-width="3" stroke-linecap="round" stroke-linejoin="round" stroke-miterlimit="10" fill="none" fill-rule="evenodd"/><path d="M175.504 406 247.219 406.199C248.047 406.201 248.717 406.874 248.715 407.703 248.712 408.531 248.039 409.201 247.21 409.199L175.496 409C174.667 408.998 173.998 408.324 174 407.496 174.002 406.667 174.676 405.998 175.504 406ZM247.223 404.699C248.88 404.703 250.219 406.05 250.215 407.707 250.21 409.364 248.863 410.703 247.206 410.699 245.549 410.694 244.21 409.347 244.215 407.69 244.219 406.033 245.566 404.694 247.223 404.699Z"/><path d="M0 0 2.40819 258.73" stroke="#000000" stroke-width="3" stroke-linecap="round" stroke-linejoin="round" stroke-miterlimit="10" fill="none" fill-rule="evenodd" transform="matrix(-1 0 0 1 247.908 278.5)"/><path d="M0 0 51.3519 0.000104987" stroke="#000000" stroke-width="3" stroke-linecap="round" stroke-linejoin="round" stroke-miterlimit="10" fill="none" fill-rule="evenodd" transform="matrix(-1 0 0 1 298.852 277.5)"/><path d="M0 0 46.0848 0.000104987" stroke="#000000" stroke-width="3" stroke-linecap="round" stroke-linejoin="round" stroke-miterlimit="10" fill="none" fill-rule="evenodd" transform="matrix(-1 0 0 1 293.585 537.5)"/><path d="M0 0 62.6172 0.000314961" stroke="#000000" stroke-width="3" stroke-linecap="round" stroke-linejoin="round" stroke-miterlimit="10" fill="none" fill-rule="evenodd" transform="matrix(-1 0 0 1 454.117 278.5)"/><path d="M0 0 66.1284 0.000104987" stroke="#000000" stroke-width="3" stroke-linecap="round" stroke-linejoin="round" stroke-miterlimit="10" fill="none" fill-rule="evenodd" transform="matrix(-1 0 0 1 453.628 537.5)"/><path d="M0 0 65.8391 0.203045" stroke="#000000" stroke-width="3" stroke-linecap="round" stroke-linejoin="round" stroke-miterlimit="10" fill="none" fill-rule="evenodd" transform="matrix(-1 0 0 1 582.339 229.5)"/><path d="M0 0 66.1284 0.000104987" stroke="#000000" stroke-width="3" stroke-linecap="round" stroke-linejoin="round" stroke-miterlimit="10" fill="none" fill-rule="evenodd" transform="matrix(-1 0 0 1 582.628 488.5)"/><path d="M0 0 0.000104987 114.48" stroke="#000000" stroke-width="3" stroke-linecap="round" stroke-linejoin="round" stroke-miterlimit="10" fill="none" fill-rule="evenodd" transform="matrix(1 0 0 -1 344.5 245.98)"/><path d="M0.00462591-1.49999 58.3437-1.32008C59.1722-1.31752 59.8417-0.643882 59.8391 0.184541 59.8366 1.01296 59.1629 1.68246 58.3345 1.67991L-0.00462591 1.49999C-0.833049 1.49744-1.50255 0.823797-1.49999-0.00462591-1.49744-0.833049-0.823797-1.50255 0.00462591-1.49999ZM56.853-4.32469 65.8391 0.203045 56.8252 4.67527Z" transform="matrix(-1 0 0 1 582.339 323.5)"/><path d="M7.5-1.49999 66.1284-1.49989C66.9568-1.49989 67.6284-0.82832 67.6284 0.000107368 67.6284 0.828534 66.9568 1.50011 66.1284 1.5001L7.5 1.50001C6.67157 1.50001 6 0.828437 6 9.52573e-06 6-0.828418 6.67158-1.49999 7.5-1.49999ZM8.99999 4.50001 0 0 9.00001-4.49999Z" transform="matrix(-1 0 0 1 582.628 583.5)"/><text font-family="Calibri,Calibri_MSFontService,sans-serif" font-weight="400" font-size="32" transform="translate(586.626 331)">Alternate Function Output<tspan font-size="32" x="-1.7699" y="261">Alternate Function Input</tspan></text><path d="M0 0 0.674331 295.425" stroke="#000000" stroke-width="3" stroke-linecap="round" stroke-linejoin="round" stroke-miterlimit="10" fill="none" fill-rule="evenodd" transform="matrix(1 0 0 -1 422.5 426.925)"/><path d="M422.5 426.5 485.321 426.5" stroke="#000000" stroke-width="3" stroke-linecap="round" stroke-linejoin="round" stroke-miterlimit="10" fill="none" fill-rule="evenodd"/><path d="M485.5 466.56 485.5 426.5" stroke="#000000" stroke-width="3" stroke-linecap="round" stroke-linejoin="round" stroke-miterlimit="10" fill="none" fill-rule="evenodd"/><path d="M422.5 164 485.117 164C485.945 164 486.617 164.672 486.617 165.5 486.617 166.329 485.945 167 485.117 167L422.5 167C421.672 167 421 166.328 421 165.5 421 164.672 421.672 164 422.5 164ZM422.5 168.5C420.843 168.5 419.5 167.157 419.5 165.5 419.5 163.843 420.843 162.5 422.5 162.5 424.157 162.5 425.5 163.843 425.5 165.5 425.5 167.157 424.157 168.5 422.5 168.5Z"/><path d="M485.5 206.56 485.5 166.5" stroke="#000000" stroke-width="3" stroke-linecap="round" stroke-linejoin="round" stroke-miterlimit="10" fill="none" fill-rule="evenodd"/><text font-family="Calibri,Calibri_MSFontService,sans-serif" font-weight="400" font-size="32" transform="translate(51.1748 461)">GPIO pin n<tspan font-size="32" x="208.995" y="179">Receiver</tspan><tspan font-size="32" x="214.776" y="-99">Driver</tspan><tspan font-size="32" x="180.925" y="-295">Output </tspan><tspan font-size="32" x="187.005" y="-257">Enable</tspan><tspan font-size="32" x="374.992" y="-55">GPIO Mux</tspan></text></g></svg>